{"title":"The.Amazing.Race.Asia.S04E08-LCP.avi","uid":5950061,"size":369098532,"categoryP":"video","categoryS":"tv_shows","magnet":"?xt=urn:btih:17c89d16ead7bf605d104cb5e9b71ea383c4097c&amp;dn=The.Amazing.Race.Asia.S04E08-LCP.avi&amp;tr=udp%3A%2F%2Ftracker.openbittorrent.com%3A80&amp;tr=udp%3A%2F%2Fopen.demonii.com%3A1337&amp;tr=udp%3A%2F%2Ftracker.coppersurfer.tk%3A6969&amp;tr=udp%3A%2F%2Fexodus.desync.com%3A6969","seeders":1,"leechers":1,"uploader":"LCP-1","files":1,"time":1289496097,"description":"Enjoy!\n\nVideo\nFormat                           : MPEG-4 Visual\nCodec ID                         : XVID\nDuration                         : 47mn 28s\nBit rate                         : 927 Kbps\nWidth                            : 624 pixels\nHeight                           : 352 pixels\nDisplay aspect ratio             : 16:9\nFrame rate                       : 25.000 fps\nBits/(Pixel*Frame)               : 0.169\nStream size                      : 315 MiB (89%)\n\nAudio\nFormat                           : MPEG Audio\nFormat profile                   : Layer 3\nMode                             : Joint stereo\nCodec ID/Hint                    : MP3\nDuration                         : 47mn 28s\nBit rate mode                    : Constant\nBit rate                         : 96.0 Kbps\nChannel(s)                       : 2 channels\nSampling rate                    : 48.0 KHz\nBit depth                        : 16 bits\nStream size                      : 32.6 MiB (9%)\n","torrent":{"xt":"urn:btih:17c89d16ead7bf605d104cb5e9b71ea383c4097c","amp;dn":"The.Amazing.Race.Asia.S04E08-LCP.avi","amp;tr":["udp%3A%2F%2Ftracker.openbittorrent.com%3A80","udp%3A%2F%2Fopen.demonii.com%3A1337","udp%3A%2F%2Ftracker.coppersurfer.tk%3A6969","udp%3A%2F%2Fexodus.desync.com%3A6969"],"infoHash":"17c89d16ead7bf605d104cb5e9b71ea383c4097c","infoHashBuffer":{"type":"Buffer","data":[23,200,157,22,234,215,191,96,93,16,76,181,233,183,30,163,131,196,9,124]},"announce":[],"urlList":[]}}